<svg viewBox="0 0 200 120" fill="none" xmlns="http://www.w3.org/2000/svg">
  <rect width="200" height="120" rx="20" fill="#0f172a"/> <g color="white">
    <path d="M 148 48 C 160 40, 165 55, 158 58 C 153 60, 150 55, 155 52" stroke="currentColor" stroke-width="4" stroke-linecap="round" stroke-linejoin="round"/>
    <path d="M 120 85 L 115 105 L 100 105 L 105 85" stroke="currentColor" stroke-width="4" stroke-linecap="round" stroke-linejoin="round"/>
    <path d="M 70 85 L 65 105 L 50 105 L 55 85" stroke="currentColor" stroke-width="4" stroke-linecap="round" stroke-linejoin="round"/>
    <path d="M 25 65 C 22 65, 20 60, 25 55 C 30 50, 35 48, 40 45 L 35 35 L 45 42 L 50 30 L 60 40 C 80 32, 120 32, 140 45 C 155 55, 150 80, 140 85 L 140 105 L 125 105 L 120 85 C 105 88, 90 88, 80 85 L 75 105 L 60 105 L 65 85 C 50 85, 35 80, 25 65 Z" stroke="currentColor" stroke-width="4" stroke-linecap="round" stroke-linejoin="round"/>
    <circle cx="42" cy="55" r="3" fill="currentColor" stroke="none" />
    <rect x="70" y="42" width="45" height="38" rx="6" stroke="currentColor" stroke-width="4" />
    <path d="M 78 52 H 88 M 83 47 V 57" stroke="currentColor" stroke-width="4" stroke-linecap="round"/>
    <path d="M 98 52 H 108" stroke="currentColor" stroke-width="4" stroke-linecap="round"/>
    <path d="M 78 68 H 88" stroke="currentColor" stroke-width="4" stroke-linecap="round"/>
    <path d="M 122 55 H 135 M 122 63 H 135" stroke="currentColor" stroke-width="4" stroke-linecap="round"/>
  </g>
</svg>
